
<svg version="1.1" id="Layer_1" xmlns="http://www.w3.org/2000/svg" xmlns:xlink="http://www.w3.org/1999/xlink" x="0px" y="0px"
	 width="100%" viewBox="0 0 500 500" enable-background="new 0 0 500 500" xml:space="preserve">
<path fill="#010101" opacity="1.000000" stroke="none" 
	d="
M501.000000,174.000000 
	C501.000000,283.333313 501.000000,392.166595 501.000000,500.999939 
	C334.333405,500.999939 167.666794,500.999939 1.000148,500.999969 
	C1.000099,334.333435 1.000099,167.666870 1.000049,1.000237 
	C167.666519,1.000158 334.333038,1.000158 500.999786,1.000079 
	C501.000000,58.500000 501.000000,116.000000 501.000000,174.000000 
M10.613272,241.211670 
	C8.737629,253.382706 10.312865,265.120300 15.388938,276.309235 
	C24.382410,296.133026 39.751286,310.213867 57.570469,321.797302 
	C61.660576,324.456085 62.036514,326.571777 60.701950,330.904266 
	C54.731281,350.287292 51.606491,370.006256 53.919052,390.439697 
	C56.960514,417.313690 73.582024,437.649384 99.514099,445.129486 
	C117.250084,450.245422 135.100586,449.151642 152.886963,445.452179 
	C160.927567,443.779816 168.853210,441.554749 176.792313,439.589996 
	C184.689453,452.239594 193.615158,463.588165 204.739212,473.085907 
	C233.379974,497.539490 266.306580,497.930969 295.496552,474.185730 
	C306.333038,465.370483 315.091583,454.726135 322.522980,442.993469 
	C324.342896,440.120209 325.849640,439.408203 329.224731,440.461975 
	C347.925537,446.300751 366.956726,449.640228 386.716156,448.073273 
	C419.533020,445.470825 442.109406,424.945374 447.207916,392.641541 
	C450.503510,371.760773 447.160553,351.511322 441.070770,331.617432 
	C439.603912,326.825500 439.959045,324.237030 444.622864,321.345581 
	C457.441345,313.398438 468.660950,303.451355 477.567413,291.149567 
	C487.872040,276.916626 493.331146,261.298462 491.192627,243.427856 
	C489.271790,227.375992 481.988037,213.824081 470.947418,202.624557 
	C461.430298,192.970398 450.616089,184.594925 440.091766,175.406570 
	C442.066437,166.846558 444.748749,157.243759 446.439240,147.469437 
	C449.953003,127.153206 449.924042,107.052856 440.833221,87.829590 
	C440.276947,86.653313 440.585327,84.655548 441.210876,83.397865 
	C446.474731,72.814423 444.560822,61.941616 436.024963,54.966141 
	C427.699707,48.162769 416.575592,48.332626 407.430939,55.080578 
	C406.015167,56.125317 403.627289,56.439800 401.791138,56.223721 
	C394.706726,55.390049 387.693237,53.624973 380.599548,53.263790 
	C362.944366,52.364868 345.834167,55.907104 329.088715,61.167255 
	C325.903534,62.167812 324.666779,61.364933 322.678619,58.921185 
	C314.305664,48.629616 306.278656,37.885696 296.735474,28.760559 
	C284.960083,17.500988 270.490692,10.743312 253.761429,9.983390 
	C232.698349,9.026607 215.464462,17.834164 201.030853,32.082237 
	C191.867081,41.128220 184.099548,51.588608 175.314270,61.873142 
	C175.353378,61.883564 174.400940,61.655972 173.464035,61.376362 
	C153.405319,55.390087 133.173889,51.587337 112.005630,53.849037 
	C83.829361,56.859493 62.939426,74.224648 55.939953,101.617340 
	C55.221649,104.428452 54.037304,105.567566 51.080513,106.021149 
	C41.167324,107.541862 33.493317,116.049179 32.830177,125.703087 
	C32.071423,136.748856 38.106064,145.945221 48.330090,149.110840 
	C50.667397,149.834518 53.133148,150.143341 55.338142,150.601227 
	C57.584297,159.352173 59.765415,167.849731 61.893726,176.141556 
	C54.726242,181.656189 47.335136,186.783798 40.586124,192.650116 
	C25.845049,205.463242 14.428945,220.515869 10.613272,241.211670 
z"/>
<path fill="#F8F8F8" opacity="1.000000" stroke="none" 
	d="
M10.720499,240.783875 
	C14.428945,220.515869 25.845049,205.463242 40.586124,192.650116 
	C47.335136,186.783798 54.726242,181.656189 61.893726,176.141556 
	C59.765415,167.849731 57.584297,159.352173 55.338142,150.601227 
	C53.133148,150.143341 50.667397,149.834518 48.330090,149.110840 
	C38.106064,145.945221 32.071423,136.748856 32.830177,125.703087 
	C33.493317,116.049179 41.167324,107.541862 51.080513,106.021149 
	C54.037304,105.567566 55.221649,104.428452 55.939953,101.617340 
	C62.939426,74.224648 83.829361,56.859493 112.005630,53.849037 
	C133.173889,51.587337 153.405319,55.390087 173.464035,61.376362 
	C174.400940,61.655972 175.353378,61.883564 175.314270,61.873142 
	C184.099548,51.588608 191.867081,41.128220 201.030853,32.082237 
	C215.464462,17.834164 232.698349,9.026607 253.761429,9.983390 
	C270.490692,10.743312 284.960083,17.500988 296.735474,28.760559 
	C306.278656,37.885696 314.305664,48.629616 322.678619,58.921185 
	C324.666779,61.364933 325.903534,62.167812 329.088715,61.167255 
	C345.834167,55.907104 362.944366,52.364868 380.599548,53.263790 
	C387.693237,53.624973 394.706726,55.390049 401.791138,56.223721 
	C403.627289,56.439800 406.015167,56.125317 407.430939,55.080578 
	C416.575592,48.332626 427.699707,48.162769 436.024963,54.966141 
	C444.560822,61.941616 446.474731,72.814423 441.210876,83.397865 
	C440.585327,84.655548 440.276947,86.653313 440.833221,87.829590 
	C449.924042,107.052856 449.953003,127.153206 446.439240,147.469437 
	C444.748749,157.243759 442.066437,166.846558 440.091766,175.406570 
	C450.616089,184.594925 461.430298,192.970398 470.947418,202.624557 
	C481.988037,213.824081 489.271790,227.375992 491.192627,243.427856 
	C493.331146,261.298462 487.872040,276.916626 477.567413,291.149567 
	C468.660950,303.451355 457.441345,313.398438 444.622864,321.345581 
	C439.959045,324.237030 439.603912,326.825500 441.070770,331.617432 
	C447.160553,351.511322 450.503510,371.760773 447.207916,392.641541 
	C442.109406,424.945374 419.533020,445.470825 386.716156,448.073273 
	C366.956726,449.640228 347.925537,446.300751 329.224731,440.461975 
	C325.849640,439.408203 324.342896,440.120209 322.522980,442.993469 
	C315.091583,454.726135 306.333038,465.370483 295.496552,474.185730 
	C266.306580,497.930969 233.379974,497.539490 204.739212,473.085907 
	C193.615158,463.588165 184.689453,452.239594 176.792313,439.589996 
	C168.853210,441.554749 160.927567,443.779816 152.886963,445.452179 
	C135.100586,449.151642 117.250084,450.245422 99.514099,445.129486 
	C73.582024,437.649384 56.960514,417.313690 53.919052,390.439697 
	C51.606491,370.006256 54.731281,350.287292 60.701950,330.904266 
	C62.036514,326.571777 61.660576,324.456085 57.570469,321.797302 
	C39.751286,310.213867 24.382410,296.133026 15.388938,276.309235 
	C10.312865,265.120300 8.737629,253.382706 10.720499,240.783875 
M283.268982,368.520782 
	C261.307648,368.520782 239.346298,368.520782 217.384964,368.520782 
	C217.344269,368.966309 217.303589,369.411835 217.262894,369.857361 
	C228.368637,377.876740 239.474396,385.896149 250.534531,393.882599 
	C253.696060,391.769043 256.409637,390.145721 258.913605,388.246124 
	C267.309082,381.877014 275.629761,375.409363 284.542938,368.984039 
	C284.534210,368.774536 284.525482,368.565033 284.516754,368.355530 
	C284.381622,368.364258 284.136597,368.350128 284.129242,368.385468 
	C284.083618,368.604584 284.091370,368.834839 283.268982,368.520782 
M357.253815,202.457062 
	C339.449615,181.701431 320.244080,162.341293 299.362396,144.678406 
	C297.608978,143.195251 295.134369,141.962402 292.889099,141.754425 
	C264.651794,139.138824 236.394180,139.030075 208.161636,141.848663 
	C206.201416,142.044357 204.033432,143.073868 202.517670,144.366913 
	C181.581619,162.226730 162.155319,181.616135 144.311081,202.569092 
	C143.112000,203.977051 142.079483,205.941681 141.899338,207.740540 
	C139.038971,236.304413 139.072525,264.888397 141.839386,293.456879 
	C142.014191,295.261810 142.930099,297.262817 144.107574,298.662567 
	C162.038528,319.979126 181.730423,339.559296 202.962189,357.575531 
	C204.560013,358.931335 207.020325,359.720093 209.159531,359.920502 
	C237.062057,362.534851 264.981293,362.422089 292.885895,359.924957 
	C294.728760,359.760071 296.860718,359.114716 298.232635,357.953583 
	C319.748657,339.744659 339.590271,319.838348 357.840240,298.361816 
	C359.012878,296.981903 359.750061,294.882141 359.914429,293.047760 
	C362.429810,264.979034 362.526917,236.895432 359.914368,208.827591 
	C359.729584,206.842560 358.499817,204.954788 357.253815,202.457062 
M61.015205,368.767090 
	C61.014908,373.929413 60.686558,379.116577 61.074532,384.249542 
	C62.345318,401.062225 67.604858,416.162872 81.076042,427.304504 
	C91.176498,435.658386 103.151054,439.253021 115.999039,440.419678 
	C135.343750,442.176270 153.825439,438.204437 172.499985,432.412750 
	C159.770874,409.008423 151.004120,384.719238 144.719833,359.478210 
	C144.429367,358.311615 142.602478,357.124054 141.253403,356.696503 
	C136.189011,355.091492 131.004456,353.871124 125.903603,352.374756 
	C106.273026,346.615997 87.367630,339.055817 69.125496,329.037598 
	C67.726250,333.975616 66.097702,338.541382 65.173782,343.245514 
	C63.573189,351.394806 62.409081,359.629852 61.015205,368.767090 
M102.338310,63.606873 
	C80.678650,69.564842 63.541157,88.454475 63.115856,106.839432 
	C82.215782,117.495033 82.321205,135.231354 62.981560,149.502670 
	C64.915871,156.971252 66.894707,164.611740 68.555603,171.024643 
	C87.594330,163.744492 106.091187,156.523026 124.711433,149.635101 
	C130.907288,147.343124 139.243057,147.697937 143.283890,143.584579 
	C147.479950,139.313217 147.311127,130.967575 149.663208,124.630882 
	C156.569519,106.024712 163.779785,87.531364 170.975464,68.720810 
	C149.572357,61.998783 126.760254,57.855396 102.338310,63.606873 
M351.724060,378.175598 
	C350.016388,381.726105 350.317657,384.300415 353.410889,387.587006 
	C359.440399,393.993317 360.728058,402.001587 357.370941,410.326538 
	C354.116455,418.397064 348.043365,423.689972 339.363739,424.001221 
	C332.993530,424.229675 330.996033,427.541870 329.546417,432.516388 
	C352.674377,439.935699 369.521637,442.021606 389.602203,439.988983 
	C413.734772,437.546143 431.942963,422.267181 438.047058,398.934814 
	C444.259979,375.186432 439.410217,352.287354 432.510742,329.230103 
	C431.328369,329.744598 430.555511,330.014343 429.845337,330.399628 
	C411.664886,340.264008 392.485077,347.622986 372.612671,353.245514 
	C367.664917,354.645386 361.260651,354.598022 358.151917,357.780823 
	C354.888550,361.121887 354.777100,367.542908 353.292542,372.619232 
	C352.825867,374.214874 352.373260,375.814606 351.724060,378.175598 
M409.645203,90.958344 
	C400.276764,84.202217 397.733307,75.156586 400.953217,63.976547 
	C376.302795,57.453804 352.714569,61.882812 329.037170,69.141655 
	C341.665894,92.092819 350.245453,116.256325 356.747009,141.236450 
	C357.147797,142.776291 359.246857,144.433823 360.908508,144.998337 
	C375.978241,150.117859 391.260925,154.638474 406.201508,160.099899 
	C415.164520,163.376282 423.629120,168.016113 432.655640,172.199753 
	C440.338501,145.234833 445.706940,118.505966 434.006531,91.232613 
	C425.737335,95.546669 417.985809,95.875687 409.645203,90.958344 
M307.484619,450.948334 
	C310.842102,446.277191 314.199615,441.606018 317.732452,436.690918 
	C294.732513,428.222046 273.828003,417.395660 253.854828,404.757294 
	C251.522797,403.281708 250.037689,403.394073 247.721207,404.763550 
	C237.714951,410.679169 227.731995,416.686462 217.378525,421.947998 
	C206.671707,427.389160 195.546494,432.006958 184.320526,437.114014 
	C194.036072,452.274323 205.273407,465.884888 220.932480,475.258331 
	C240.338104,486.874512 259.933899,487.090424 279.601868,475.916809 
	C290.476257,469.738983 299.245209,461.161438 307.484619,450.948334 
M459.191986,201.304779 
	C451.868195,195.424896 444.544403,189.545029 436.870605,183.384155 
	C428.286346,206.683578 417.591125,227.471481 405.019440,247.294510 
	C403.351715,249.924179 403.440186,251.659378 404.956726,254.317795 
	C412.194672,267.005219 419.396667,279.727295 426.090332,292.705780 
	C430.147339,300.572021 433.255524,308.927643 436.916779,317.355133 
	C450.932037,308.527405 463.316589,298.336334 472.640503,284.840607 
	C479.171021,275.388092 483.546082,265.042175 483.977600,253.361145 
	C484.766357,232.009720 474.212036,215.963333 459.191986,201.304779 
M238.430908,91.084450 
	C241.268066,92.818810 244.282806,94.324165 246.894470,96.349335 
	C249.737457,98.553894 251.885239,98.157990 254.823517,96.298233 
	C273.523376,84.462334 293.092316,74.289200 313.790924,66.364479 
	C314.958038,65.917641 316.073059,65.334877 317.386902,64.735771 
	C309.967163,52.871555 301.635010,42.328075 291.098785,33.732212 
	C272.046661,18.188744 251.154602,12.087234 227.653931,22.831139 
	C208.360474,31.651608 195.445984,47.243008 184.778610,63.770454 
	C202.642761,72.867241 220.209442,81.812553 238.430908,91.084450 
M72.943291,203.603394 
	C70.233398,197.194366 67.523506,190.785339 64.736176,184.193176 
	C50.935570,192.820190 38.603710,202.863846 29.358011,216.183304 
	C15.047269,236.799515 13.172411,258.287811 26.110697,280.286407 
	C35.438736,296.146606 49.176311,307.535156 64.632034,317.337158 
	C65.112091,316.556793 65.557030,316.040894 65.779243,315.442322 
	C73.846230,293.712402 84.494186,273.279663 96.935074,253.768173 
	C98.427284,251.427902 98.092583,249.849106 96.822166,247.565689 
	C88.836533,233.212463 81.056473,218.744888 72.943291,203.603394 
M371.028931,294.610565 
	C367.901337,297.435150 366.664490,301.009155 366.323059,305.163879 
	C365.901154,310.297333 365.160614,315.413361 364.353394,320.504517 
	C362.879486,329.800232 361.255280,339.072144 359.612366,348.837921 
	C384.478760,342.414368 407.969025,334.107819 429.874054,321.529846 
	C421.767365,299.031860 411.058472,278.255219 398.524261,258.370422 
	C389.348114,270.472656 380.413361,282.256531 371.028931,294.610565 
M345.867249,130.745697 
	C339.731873,110.277206 332.334656,90.339806 321.546936,71.708130 
	C298.896759,79.897652 278.077820,90.633774 258.394135,103.120697 
	C270.103271,111.975731 281.742828,120.547791 293.095428,129.484360 
	C297.254211,132.758087 301.263275,135.181717 306.818298,135.411728 
	C312.927307,135.664688 319.005920,136.926254 325.070068,137.917953 
	C332.883575,139.195755 340.669495,140.642014 348.849365,142.083008 
	C347.817688,138.224197 346.924927,134.884933 345.867249,130.745697 
M138.652405,172.056000 
	C139.786697,165.756882 140.921005,159.457764 142.134064,152.721222 
	C117.201935,159.114380 93.759880,167.489105 71.658813,180.056168 
	C79.898926,202.591980 90.507599,223.453400 103.060104,243.090790 
	C113.142288,229.922180 123.075203,217.020447 132.886993,204.027252 
	C133.923691,202.654404 134.591064,200.794846 134.846085,199.074554 
	C136.137527,190.362518 137.236084,181.621872 138.652405,172.056000 
M165.242737,139.856857 
	C176.262558,138.229874 187.287857,136.638321 198.296585,134.939484 
	C200.038422,134.670685 202.016113,134.331879 203.359116,133.324585 
	C216.632217,123.369324 229.794388,113.266129 243.195480,103.046600 
	C223.351227,90.571220 202.558762,79.738808 180.014221,71.742249 
	C167.444580,93.891792 159.069092,117.307976 152.702286,142.235458 
	C156.999084,141.400864 160.696640,140.682663 165.242737,139.856857 
M82.987427,294.583801 
	C79.134987,303.502625 75.282539,312.421448 71.384392,321.446075 
	C93.992188,334.127930 117.327126,342.587646 141.649399,348.710968 
	C141.805450,347.955994 141.967880,347.625641 141.921829,347.327515 
	C139.564560,332.065491 137.202499,316.804169 134.789825,301.550873 
	C134.612625,300.430542 134.303665,299.181000 133.638580,298.310364 
	C123.502205,285.040955 113.296165,271.824707 102.631378,257.979370 
	C96.159630,269.984924 89.716560,281.937256 82.987427,294.583801 
M241.301666,399.823242 
	C245.122131,397.564697 241.468033,396.825714 240.360229,395.989685 
	C229.480591,387.778961 218.310699,379.935120 207.700287,371.394409 
	C203.690689,368.166962 199.605301,366.691467 194.741714,366.121887 
	C187.482178,365.271667 180.243744,364.210785 173.022308,363.074463 
	C166.405838,362.033356 159.823792,360.773376 152.698318,359.516663 
	C159.213608,384.529999 167.520523,407.992157 180.029572,429.885620 
	C201.655518,422.087646 221.577164,411.988281 241.301666,399.823242 
M425.224243,177.341141 
	C404.484406,166.486176 382.696686,158.504639 359.954987,152.931091 
	C362.185822,167.874725 364.156830,182.318008 366.617798,196.677292 
	C367.220856,200.195847 368.896576,203.818695 370.988647,206.742889 
	C379.012390,217.958069 387.403259,228.910706 395.666443,239.954330 
	C396.500671,241.069244 397.398102,242.136856 398.440033,243.444580 
	C411.089783,223.110291 421.889343,202.477448 429.818298,180.119156 
	C428.395813,179.280029 427.134369,178.535919 425.224243,177.341141 
M296.919556,369.147034 
	C284.124146,378.934753 271.328735,388.722504 258.398865,398.613098 
	C278.332581,411.024353 299.102570,421.892456 321.620972,429.888977 
	C323.119232,427.187469 324.541870,424.622253 325.935638,422.109161 
	C314.892578,412.986023 311.773499,403.956665 315.958405,393.740204 
	C320.140839,383.529633 328.592285,379.200348 343.086975,380.182190 
	C344.970001,373.582062 346.886414,366.864899 348.927521,359.710693 
	C347.582275,359.799622 346.941925,359.793304 346.317627,359.890381 
	C331.204010,362.240662 316.087830,364.575623 300.987915,367.011353 
	C299.777130,367.206635 298.680511,368.109741 296.919556,369.147034 
M264.360809,117.123962 
	C259.858337,114.042099 255.355896,110.960236 250.567902,107.682930 
	C239.249817,115.898857 228.083099,124.004890 216.216827,132.618744 
	C239.757401,132.618744 262.090118,132.618744 285.198395,132.618744 
	C277.994446,127.263321 271.465118,122.409439 264.360809,117.123962 
M369.179474,262.868866 
	C369.179474,269.895111 369.179474,276.921387 369.179474,285.158600 
	C377.791779,273.269135 385.895782,262.081360 393.959991,250.948563 
	C385.650421,239.319702 378.475555,227.625275 369.220459,217.654892 
	C369.220459,232.865784 369.220459,247.398788 369.179474,262.868866 
M120.060478,268.408417 
	C124.126518,273.774536 128.192551,279.140656 132.567383,284.914307 
	C132.567383,261.910980 132.567383,239.638321 132.567383,216.184357 
	C123.906387,228.150421 115.789185,239.365173 107.635391,250.630463 
	C111.857872,256.654449 115.766251,262.230347 120.060478,268.408417 
M150.805115,350.688599 
	C163.966507,353.318268 177.127899,355.947968 188.906006,358.301239 
	C173.899185,343.251251 158.511795,327.819580 143.465210,312.729736 
	C145.622070,324.354950 147.998962,337.166260 150.805115,350.688599 
M326.564941,145.899200 
	C321.552460,145.144150 316.539978,144.389084 313.340820,143.907181 
	C327.935242,158.576950 343.341339,174.062592 358.115295,188.912842 
	C356.150452,178.118942 354.024323,165.879883 351.570404,153.706909 
	C351.282349,152.278137 349.370117,150.459839 347.902740,150.108429 
	C341.138763,148.488510 334.265625,147.324326 326.564941,145.899200 
M324.831757,344.336243 
	C320.181183,348.694427 315.530609,353.052612 310.880035,357.410828 
	C323.623779,356.135101 335.880432,353.936859 348.102173,351.559204 
	C349.280365,351.329987 350.988129,350.138489 351.190796,349.138458 
	C353.735870,336.580963 356.048798,323.976410 357.905396,314.121613 
	C347.903992,323.245911 336.620148,333.540192 324.831757,344.336243 
M148.508224,186.082718 
	C162.172501,172.065140 175.836777,158.047546 190.005707,143.512253 
	C181.596161,144.883575 173.775620,146.951157 165.885620,147.263412 
	C153.441422,147.755936 147.880966,153.589493 147.252228,165.862198 
	C146.844299,173.825089 144.881668,181.708344 143.615631,189.627274 
	C144.159805,189.949524 144.703979,190.271759 145.248169,190.594009 
	C146.179199,189.276474 147.110245,187.958939 148.508224,186.082718 
z"/>
<path fill="#010101" opacity="1.000000" stroke="none" 
	d="
M357.504883,202.739410 
	C358.499817,204.954788 359.729584,206.842560 359.914368,208.827591 
	C362.526917,236.895432 362.429810,264.979034 359.914429,293.047760 
	C359.750061,294.882141 359.012878,296.981903 357.840240,298.361816 
	C339.590271,319.838348 319.748657,339.744659 298.232635,357.953583 
	C296.860718,359.114716 294.728760,359.760071 292.885895,359.924957 
	C264.981293,362.422089 237.062057,362.534851 209.159531,359.920502 
	C207.020325,359.720093 204.560013,358.931335 202.962189,357.575531 
	C181.730423,339.559296 162.038528,319.979126 144.107574,298.662567 
	C142.930099,297.262817 142.014191,295.261810 141.839386,293.456879 
	C139.072525,264.888397 139.038971,236.304413 141.899338,207.740540 
	C142.079483,205.941681 143.112000,203.977051 144.311081,202.569092 
	C162.155319,181.616135 181.581619,162.226730 202.517670,144.366913 
	C204.033432,143.073868 206.201416,142.044357 208.161636,141.848663 
	C236.394180,139.030075 264.651794,139.138824 292.889099,141.754425 
	C295.134369,141.962402 297.608978,143.195251 299.362396,144.678406 
	C320.244080,162.341293 339.449615,181.701431 357.504883,202.739410 
M283.232452,199.239716 
	C273.203186,191.254303 261.835449,187.274673 248.969330,187.902451 
	C227.635193,188.943436 212.215424,199.510742 203.533524,218.580490 
	C194.793488,237.777863 197.473480,256.488525 210.941345,272.830750 
	C224.306061,289.047821 242.003616,294.924072 262.385986,290.299927 
	C283.279236,285.559875 296.510101,271.883362 301.322144,251.186493 
	C306.067993,230.774597 299.558441,213.480789 283.232452,199.239716 
z"/>
<path fill="#010101" opacity="1.000000" stroke="none" 
	d="
M61.038555,368.298004 
	C62.409081,359.629852 63.573189,351.394806 65.173782,343.245514 
	C66.097702,338.541382 67.726250,333.975616 69.125496,329.037598 
	C87.367630,339.055817 106.273026,346.615997 125.903603,352.374756 
	C131.004456,353.871124 136.189011,355.091492 141.253403,356.696503 
	C142.602478,357.124054 144.429367,358.311615 144.719833,359.478210 
	C151.004120,384.719238 159.770874,409.008423 172.499985,432.412750 
	C153.825439,438.204437 135.343750,442.176270 115.999039,440.419678 
	C103.151054,439.253021 91.176498,435.658386 81.076042,427.304504 
	C67.604858,416.162872 62.345318,401.062225 61.074532,384.249542 
	C60.686558,379.116577 61.014908,373.929413 61.038555,368.298004 
z"/>
<path fill="#010101" opacity="1.000000" stroke="none" 
	d="
M102.714951,63.438194 
	C126.760254,57.855396 149.572357,61.998783 170.975464,68.720810 
	C163.779785,87.531364 156.569519,106.024712 149.663208,124.630882 
	C147.311127,130.967575 147.479950,139.313217 143.283890,143.584579 
	C139.243057,147.697937 130.907288,147.343124 124.711433,149.635101 
	C106.091187,156.523026 87.594330,163.744492 68.555603,171.024643 
	C66.894707,164.611740 64.915871,156.971252 62.981560,149.502670 
	C82.321205,135.231354 82.215782,117.495033 63.115856,106.839432 
	C63.541157,88.454475 80.678650,69.564842 102.714951,63.438194 
z"/>
<path fill="#020202" opacity="1.000000" stroke="none" 
	d="
M351.819122,377.794037 
	C352.373260,375.814606 352.825867,374.214874 353.292542,372.619232 
	C354.777100,367.542908 354.888550,361.121887 358.151917,357.780823 
	C361.260651,354.598022 367.664917,354.645386 372.612671,353.245514 
	C392.485077,347.622986 411.664886,340.264008 429.845337,330.399628 
	C430.555511,330.014343 431.328369,329.744598 432.510742,329.230103 
	C439.410217,352.287354 444.259979,375.186432 438.047058,398.934814 
	C431.942963,422.267181 413.734772,437.546143 389.602203,439.988983 
	C369.521637,442.021606 352.674377,439.935699 329.546417,432.516388 
	C330.996033,427.541870 332.993530,424.229675 339.363739,424.001221 
	C348.043365,423.689972 354.116455,418.397064 357.370941,410.326538 
	C360.728058,402.001587 359.440399,393.993317 353.410889,387.587006 
	C350.317657,384.300415 350.016388,381.726105 351.819122,377.794037 
z"/>
<path fill="#010101" opacity="1.000000" stroke="none" 
	d="
M409.959839,91.146194 
	C417.985809,95.875687 425.737335,95.546669 434.006531,91.232613 
	C445.706940,118.505966 440.338501,145.234833 432.655640,172.199753 
	C423.629120,168.016113 415.164520,163.376282 406.201508,160.099899 
	C391.260925,154.638474 375.978241,150.117859 360.908508,144.998337 
	C359.246857,144.433823 357.147797,142.776291 356.747009,141.236450 
	C350.245453,116.256325 341.665894,92.092819 329.037170,69.141655 
	C352.714569,61.882812 376.302795,57.453804 400.953217,63.976547 
	C397.733307,75.156586 400.276764,84.202217 409.959839,91.146194 
z"/>
<path fill="#010101" opacity="1.000000" stroke="none" 
	d="
M307.257935,451.222595 
	C299.245209,461.161438 290.476257,469.738983 279.601868,475.916809 
	C259.933899,487.090424 240.338104,486.874512 220.932480,475.258331 
	C205.273407,465.884888 194.036072,452.274323 184.320526,437.114014 
	C195.546494,432.006958 206.671707,427.389160 217.378525,421.947998 
	C227.731995,416.686462 237.714951,410.679169 247.721207,404.763550 
	C250.037689,403.394073 251.522797,403.281708 253.854828,404.757294 
	C273.828003,417.395660 294.732513,428.222046 317.732452,436.690918 
	C314.199615,441.606018 310.842102,446.277191 307.257935,451.222595 
z"/>
<path fill="#010101" opacity="1.000000" stroke="none" 
	d="
M459.454681,201.544830 
	C474.212036,215.963333 484.766357,232.009720 483.977600,253.361145 
	C483.546082,265.042175 479.171021,275.388092 472.640503,284.840607 
	C463.316589,298.336334 450.932037,308.527405 436.916779,317.355133 
	C433.255524,308.927643 430.147339,300.572021 426.090332,292.705780 
	C419.396667,279.727295 412.194672,267.005219 404.956726,254.317795 
	C403.440186,251.659378 403.351715,249.924179 405.019440,247.294510 
	C417.591125,227.471481 428.286346,206.683578 436.870605,183.384155 
	C444.544403,189.545029 451.868195,195.424896 459.454681,201.544830 
z"/>
<path fill="#020202" opacity="1.000000" stroke="none" 
	d="
M238.103516,90.921158 
	C220.209442,81.812553 202.642761,72.867241 184.778610,63.770454 
	C195.445984,47.243008 208.360474,31.651608 227.653931,22.831139 
	C251.154602,12.087234 272.046661,18.188744 291.098785,33.732212 
	C301.635010,42.328075 309.967163,52.871555 317.386902,64.735771 
	C316.073059,65.334877 314.958038,65.917641 313.790924,66.364479 
	C293.092316,74.289200 273.523376,84.462334 254.823517,96.298233 
	C251.885239,98.157990 249.737457,98.553894 246.894470,96.349335 
	C244.282806,94.324165 241.268066,92.818810 238.103516,90.921158 
z"/>
<path fill="#010101" opacity="1.000000" stroke="none" 
	d="
M73.075867,203.959259 
	C81.056473,218.744888 88.836533,233.212463 96.822166,247.565689 
	C98.092583,249.849106 98.427284,251.427902 96.935074,253.768173 
	C84.494186,273.279663 73.846230,293.712402 65.779243,315.442322 
	C65.557030,316.040894 65.112091,316.556793 64.632034,317.337158 
	C49.176311,307.535156 35.438736,296.146606 26.110697,280.286407 
	C13.172411,258.287811 15.047269,236.799515 29.358011,216.183304 
	C38.603710,202.863846 50.935570,192.820190 64.736176,184.193176 
	C67.523506,190.785339 70.233398,197.194366 73.075867,203.959259 
z"/>
<path fill="#020202" opacity="1.000000" stroke="none" 
	d="
M371.253784,294.325500 
	C380.413361,282.256531 389.348114,270.472656 398.524261,258.370422 
	C411.058472,278.255219 421.767365,299.031860 429.874054,321.529846 
	C407.969025,334.107819 384.478760,342.414368 359.612366,348.837921 
	C361.255280,339.072144 362.879486,329.800232 364.353394,320.504517 
	C365.160614,315.413361 365.901154,310.297333 366.323059,305.163879 
	C366.664490,301.009155 367.901337,297.435150 371.253784,294.325500 
z"/>
<path fill="#020202" opacity="1.000000" stroke="none" 
	d="
M345.949707,131.145691 
	C346.924927,134.884933 347.817688,138.224197 348.849365,142.083008 
	C340.669495,140.642014 332.883575,139.195755 325.070068,137.917953 
	C319.005920,136.926254 312.927307,135.664688 306.818298,135.411728 
	C301.263275,135.181717 297.254211,132.758087 293.095428,129.484360 
	C281.742828,120.547791 270.103271,111.975731 258.394135,103.120697 
	C278.077820,90.633774 298.896759,79.897652 321.546936,71.708130 
	C332.334656,90.339806 339.731873,110.277206 345.949707,131.145691 
z"/>
<path fill="#020202" opacity="1.000000" stroke="none" 
	d="
M138.527313,172.473633 
	C137.236084,181.621872 136.137527,190.362518 134.846085,199.074554 
	C134.591064,200.794846 133.923691,202.654404 132.886993,204.027252 
	C123.075203,217.020447 113.142288,229.922180 103.060104,243.090790 
	C90.507599,223.453400 79.898926,202.591980 71.658813,180.056168 
	C93.759880,167.489105 117.201935,159.114380 142.134064,152.721222 
	C140.921005,159.457764 139.786697,165.756882 138.527313,172.473633 
z"/>
<path fill="#020202" opacity="1.000000" stroke="none" 
	d="
M164.818466,139.910660 
	C160.696640,140.682663 156.999084,141.400864 152.702286,142.235458 
	C159.069092,117.307976 167.444580,93.891792 180.014221,71.742249 
	C202.558762,79.738808 223.351227,90.571220 243.195480,103.046600 
	C229.794388,113.266129 216.632217,123.369324 203.359116,133.324585 
	C202.016113,134.331879 200.038422,134.670685 198.296585,134.939484 
	C187.287857,136.638321 176.262558,138.229874 164.818466,139.910660 
z"/>
<path fill="#020202" opacity="1.000000" stroke="none" 
	d="
M83.130463,294.236694 
	C89.716560,281.937256 96.159630,269.984924 102.631378,257.979370 
	C113.296165,271.824707 123.502205,285.040955 133.638580,298.310364 
	C134.303665,299.181000 134.612625,300.430542 134.789825,301.550873 
	C137.202499,316.804169 139.564560,332.065491 141.921829,347.327515 
	C141.967880,347.625641 141.805450,347.955994 141.649399,348.710968 
	C117.327126,342.587646 93.992188,334.127930 71.384392,321.446075 
	C75.282539,312.421448 79.134987,303.502625 83.130463,294.236694 
z"/>
<path fill="#020202" opacity="1.000000" stroke="none" 
	d="
M240.966873,399.972473 
	C221.577164,411.988281 201.655518,422.087646 180.029572,429.885620 
	C167.520523,407.992157 159.213608,384.529999 152.698318,359.516663 
	C159.823792,360.773376 166.405838,362.033356 173.022308,363.074463 
	C180.243744,364.210785 187.482178,365.271667 194.741714,366.121887 
	C199.605301,366.691467 203.690689,368.166962 207.700287,371.394409 
	C218.310699,379.935120 229.480591,387.778961 240.360229,395.989685 
	C241.468033,396.825714 245.122131,397.564697 240.966873,399.972473 
z"/>
<path fill="#020202" opacity="1.000000" stroke="none" 
	d="
M425.548584,177.566467 
	C427.134369,178.535919 428.395813,179.280029 429.818298,180.119156 
	C421.889343,202.477448 411.089783,223.110291 398.440033,243.444580 
	C397.398102,242.136856 396.500671,241.069244 395.666443,239.954330 
	C387.403259,228.910706 379.012390,217.958069 370.988647,206.742889 
	C368.896576,203.818695 367.220856,200.195847 366.617798,196.677292 
	C364.156830,182.318008 362.185822,167.874725 359.954987,152.931091 
	C382.696686,158.504639 404.484406,166.486176 425.548584,177.566467 
z"/>
<path fill="#030303" opacity="1.000000" stroke="none" 
	d="
M297.225189,368.915497 
	C298.680511,368.109741 299.777130,367.206635 300.987915,367.011353 
	C316.087830,364.575623 331.204010,362.240662 346.317627,359.890381 
	C346.941925,359.793304 347.582275,359.799622 348.927521,359.710693 
	C346.886414,366.864899 344.970001,373.582062 343.086975,380.182190 
	C328.592285,379.200348 320.140839,383.529633 315.958405,393.740204 
	C311.773499,403.956665 314.892578,412.986023 325.935638,422.109161 
	C324.541870,424.622253 323.119232,427.187469 321.620972,429.888977 
	C299.102570,421.892456 278.332581,411.024353 258.398865,398.613098 
	C271.328735,388.722504 284.124146,378.934753 297.225189,368.915497 
z"/>
<path fill="#050505" opacity="1.000000" stroke="none" 
	d="
M283.979065,368.979401 
	C275.629761,375.409363 267.309082,381.877014 258.913605,388.246124 
	C256.409637,390.145721 253.696060,391.769043 250.534531,393.882599 
	C239.474396,385.896149 228.368637,377.876740 217.262894,369.857361 
	C217.303589,369.411835 217.344269,368.966309 217.384964,368.520782 
	C239.346298,368.520782 261.307648,368.520782 283.648743,368.771667 
	C284.028473,369.022583 283.979065,368.979401 283.979065,368.979401 
z"/>
<path fill="#050505" opacity="1.000000" stroke="none" 
	d="
M264.648315,117.339752 
	C271.465118,122.409439 277.994446,127.263321 285.198395,132.618744 
	C262.090118,132.618744 239.757401,132.618744 216.216827,132.618744 
	C228.083099,124.004890 239.249817,115.898857 250.567902,107.682930 
	C255.355896,110.960236 259.858337,114.042099 264.648315,117.339752 
z"/>
<path fill="#040404" opacity="1.000000" stroke="none" 
	d="
M369.199951,262.400330 
	C369.220459,247.398788 369.220459,232.865784 369.220459,217.654892 
	C378.475555,227.625275 385.650421,239.319702 393.959991,250.948563 
	C385.895782,262.081360 377.791779,273.269135 369.179474,285.158600 
	C369.179474,276.921387 369.179474,269.895111 369.199951,262.400330 
z"/>
<path fill="#040404" opacity="1.000000" stroke="none" 
	d="
M119.867554,268.107300 
	C115.766251,262.230347 111.857872,256.654449 107.635391,250.630463 
	C115.789185,239.365173 123.906387,228.150421 132.567383,216.184357 
	C132.567383,239.638321 132.567383,261.910980 132.567383,284.914307 
	C128.192551,279.140656 124.126518,273.774536 119.867554,268.107300 
z"/>
<path fill="#060606" opacity="1.000000" stroke="none" 
	d="
M150.590485,350.333069 
	C147.998962,337.166260 145.622070,324.354950 143.465210,312.729736 
	C158.511795,327.819580 173.899185,343.251251 188.906006,358.301239 
	C177.127899,355.947968 163.966507,353.318268 150.590485,350.333069 
z"/>
<path fill="#060606" opacity="1.000000" stroke="none" 
	d="
M326.998291,145.947968 
	C334.265625,147.324326 341.138763,148.488510 347.902740,150.108429 
	C349.370117,150.459839 351.282349,152.278137 351.570404,153.706909 
	C354.024323,165.879883 356.150452,178.118942 358.115295,188.912842 
	C343.341339,174.062592 327.935242,158.576950 313.340820,143.907181 
	C316.539978,144.389084 321.552460,145.144150 326.998291,145.947968 
z"/>
<path fill="#040404" opacity="1.000000" stroke="none" 
	d="
M325.084045,344.085327 
	C336.620148,333.540192 347.903992,323.245911 357.905396,314.121613 
	C356.048798,323.976410 353.735870,336.580963 351.190796,349.138458 
	C350.988129,350.138489 349.280365,351.329987 348.102173,351.559204 
	C335.880432,353.936859 323.623779,356.135101 310.880035,357.410828 
	C315.530609,353.052612 320.181183,348.694427 325.084045,344.085327 
z"/>
<path fill="#040404" opacity="1.000000" stroke="none" 
	d="
M148.274750,186.362061 
	C147.110245,187.958939 146.179199,189.276474 145.248169,190.594009 
	C144.703979,190.271759 144.159805,189.949524 143.615631,189.627274 
	C144.881668,181.708344 146.844299,173.825089 147.252228,165.862198 
	C147.880966,153.589493 153.441422,147.755936 165.885620,147.263412 
	C173.775620,146.951157 181.596161,144.883575 190.005707,143.512253 
	C175.836777,158.047546 162.172501,172.065140 148.274750,186.362061 
z"/>
<path fill="#050505" opacity="1.000000" stroke="none" 
	d="
M284.054932,369.041992 
	C284.091370,368.834839 284.083618,368.604584 284.129242,368.385468 
	C284.136597,368.350128 284.381622,368.364258 284.516754,368.355530 
	C284.525482,368.565033 284.534210,368.774536 284.260986,368.981720 
	C283.979065,368.979401 284.028473,369.022583 284.054932,369.041992 
z"/>
<path fill="#FCFCFC" opacity="1.000000" stroke="none" 
	d="
M283.501892,199.472839 
	C299.558441,213.480789 306.067993,230.774597 301.322144,251.186493 
	C296.510101,271.883362 283.279236,285.559875 262.385986,290.299927 
	C242.003616,294.924072 224.306061,289.047821 210.941345,272.830750 
	C197.473480,256.488525 194.793488,237.777863 203.533524,218.580490 
	C212.215424,199.510742 227.635193,188.943436 248.969330,187.902451 
	C261.835449,187.274673 273.203186,191.254303 283.501892,199.472839 
M242.099197,239.466446 
	C247.875931,241.554428 253.716278,243.484329 259.410889,245.776352 
	C264.750061,247.925293 267.298065,252.061188 267.196075,257.915070 
	C267.027435,267.592041 260.602051,274.717896 250.565765,274.759064 
	C246.183273,274.777039 241.585022,272.967346 237.459442,271.141174 
	C232.977478,269.157257 230.296997,265.291656 230.516907,259.824188 
	C227.081711,268.065186 228.543884,271.927643 235.843552,274.745575 
	C243.386108,277.657318 251.147675,277.813232 258.932251,275.913391 
	C268.229889,273.644348 273.655365,267.493835 274.060547,259.048584 
	C274.534485,249.170303 270.196899,242.460571 260.906555,239.013504 
	C256.081421,237.223221 250.957260,236.106201 246.363922,233.871536 
	C243.425919,232.442230 240.182587,229.995087 238.897842,227.174484 
	C236.614655,222.161865 238.084320,216.837799 241.913315,212.874741 
	C246.616440,208.006912 252.659164,206.961823 258.971710,209.160492 
	C263.635986,210.785065 268.710388,212.404587 268.176178,219.098236 
	C268.124329,219.747803 268.947693,220.467224 269.364777,221.154236 
	C269.683105,221.054138 270.001434,220.954056 270.319763,220.853958 
	C269.983734,216.651199 269.647705,212.448441 269.199188,206.838547 
	C260.994537,206.838547 253.176239,206.122910 245.552261,207.033722 
	C237.437149,208.003220 232.234924,214.342529 231.216644,222.192444 
	C230.223755,229.846542 233.424454,235.166763 242.099197,239.466446 
z"/>
<path fill="#0C0C0C" opacity="1.000000" stroke="none" 
	d="
M241.757721,239.306366 
	C233.424454,235.166763 230.223755,229.846542 231.216644,222.192444 
	C232.234924,214.342529 237.437149,208.003220 245.552261,207.033722 
	C253.176239,206.122910 260.994537,206.838547 269.199188,206.838547 
	C269.647705,212.448441 269.983734,216.651199 270.319763,220.853958 
	C270.001434,220.954056 269.683105,221.054138 269.364777,221.154236 
	C268.947693,220.467224 268.124329,219.747803 268.176178,219.098236 
	C268.710388,212.404587 263.635986,210.785065 258.971710,209.160492 
	C252.659164,206.961823 246.616440,208.006912 241.913315,212.874741 
	C238.084320,216.837799 236.614655,222.161865 238.897842,227.174484 
	C240.182587,229.995087 243.425919,232.442230 246.363922,233.871536 
	C250.957260,236.106201 256.081421,237.223221 260.906555,239.013504 
	C270.196899,242.460571 274.534485,249.170303 274.060547,259.048584 
	C273.655365,267.493835 268.229889,273.644348 258.932251,275.913391 
	C251.147675,277.813232 243.386108,277.657318 235.843552,274.745575 
	C228.543884,271.927643 227.081711,268.065186 230.516907,259.824188 
	C230.296997,265.291656 232.977478,269.157257 237.459442,271.141174 
	C241.585022,272.967346 246.183273,274.777039 250.565765,274.759064 
	C260.602051,274.717896 267.027435,267.592041 267.196075,257.915070 
	C267.298065,252.061188 264.750061,247.925293 259.410889,245.776352 
	C253.716278,243.484329 247.875931,241.554428 241.757721,239.306366 
z"/>
</svg>
